<?xml version="1.0" encoding="UTF-8"?>
<svg width="24px" height="24px" viewBox="0 0 24 24" version="1.1" xmlns="http://www.w3.org/2000/svg" xmlns:xlink="http://www.w3.org/1999/xlink">
    <!-- Generator: Sketch 57.1 (83088) - https://sketch.com -->
    <title>Home</title>
    <desc>Created with Sketch.</desc>
    <g id="Page-1" stroke="none" stroke-width="1" fill="none" fill-rule="evenodd">
        <g id="home" fill="#000000" fill-rule="nonzero">
            <circle id="Oval" cx="23" cy="10" r="1"></circle>
            <circle id="Oval" cx="12" cy="1" r="1"></circle>
            <circle id="Oval" cx="1" cy="10" r="1"></circle>
            <path d="M22,9 L19,9 L19,4 C19,3.448 19.448,3 20,3 L21,3 C21.552,3 22,3.448 22,4 L22,9 Z" id="Shape"></path>
            <polygon id="Shape" points="12 1 12 11 23 11 23.681 9.268 12.678 0.267"></polygon>
            <polygon id="Shape" points="11.322 0.267 0.319 9.268 1 11 12 11 12 1"></polygon>
            <path d="M2,10 L2,22 C2,23.105 2.895,24 4,24 L20,24 C21.105,24 22,23.105 22,22 L22,10 L2,10 Z M19,21 L15,21 L15,13 L19,13 L19,21 Z" id="Shape"></path>
        </g>
    </g>
</svg>