<?xml version="1.0" encoding="UTF-8"?>
<svg width="22px" height="22px" viewBox="0 0 22 22" version="1.1" xmlns="http://www.w3.org/2000/svg" xmlns:xlink="http://www.w3.org/1999/xlink">
    <!-- Generator: Sketch 57.1 (83088) - https://sketch.com -->
    <title>Code</title>
    <desc>Created with Sketch.</desc>
    <g id="Page-1" stroke="none" stroke-width="1" fill="none" fill-rule="evenodd">
        <g id="note" transform="translate(1.000000, 1.000000)">
            <path d="M0,18 L0,2 C0,0.895 0.895,0 2,0 L18,0 C19.105,0 20,0.895 20,2 L20,14.5 L14.5,20 L2,20 C0.895,20 0,19.105 0,18 Z" id="Shape" stroke="#000000" stroke-width="2" stroke-linecap="round" stroke-linejoin="round"></path>
            <path d="M20,14 L16,14 C14.895,14 14,14.895 14,16 L14,20 L20,14 Z" id="Shape" fill="#000000" fill-rule="nonzero"></path>
            <path d="M5,11 L13,11" id="Shape" stroke="#000000" stroke-width="2" stroke-linecap="round"></path>
            <path d="M5,7 L9,7" id="Shape" stroke="#000000" stroke-width="2" stroke-linecap="round"></path>
            <path d="M13,7 L15,7" id="Shape" stroke="#000000" stroke-width="2" stroke-linecap="round"></path>
        </g>
    </g>
</svg>