<?xml version="1.0" encoding="UTF-8"?>
<svg width="22px" height="19px" viewBox="0 0 22 19" version="1.1" xmlns="http://www.w3.org/2000/svg" xmlns:xlink="http://www.w3.org/1999/xlink">
  <title>Pipeline</title>
  <g fill-rule="nonzero">
    <path d="M19.6666667,4.66666667 C18.3780023,4.66666667 17.3333333,3.62199767 17.3333333,2.33333333 C17.3333333,1.044669 18.3780023,0 19.6666667,0 C20.955331,0 22,1.044669 22,2.33333333 C22,3.62199767 20.955331,4.66666667 19.6666667,4.66666667 Z M10.9333213,15 L19.057191,15 L17.5285953,13.4714047 C17.268246,13.211055 17.268246,12.788945 17.5285953,12.5285953 C17.788945,12.268246 18.211055,12.268246 18.4714047,12.5285953 L21.1380713,15.195262 C21.3984207,15.4556117 21.3984207,15.8777217 21.1380713,16.1380713 L18.4714047,18.804738 C18.211055,19.0650873 17.788945,19.0650873 17.5285953,18.804738 C17.268246,18.5443883 17.268246,18.1222783 17.5285953,17.8619287 L19.057191,16.3333333 L10.9333213,16.3333333 C10.9770463,16.1179267 11,15.8949773 11,15.6666667 C11,15.438356 10.9770463,15.2154067 10.9333213,15 Z M4.60515533,3.65391333 C2.635135,4.65961233 1.33333333,6.70361267 1.33333333,9 C1.33333333,11.2963873 2.635135,13.3403877 4.60515533,14.3460867 C4.43025067,14.751024 4.33333333,15.1975273 4.33333333,15.6666667 C4.33333333,15.675741 4.33336967,15.684807 4.333442,15.693864 C1.73911733,14.5315477 0,11.9345793 0,9 C0,6.06542067 1.73911733,3.46845233 4.333442,2.306136 C4.33336967,2.315193 4.33333333,2.324259 4.33333333,2.33333333 C4.33333333,2.80247267 4.43025067,3.248976 4.60515533,3.65391333 Z M16.400012,3 L10.9333213,3 C10.9770463,2.78459333 11,2.561644 11,2.33333333 C11,2.10502267 10.9770463,1.88207333 10.9333213,1.66666667 L16.400012,1.66666667 C16.356287,1.88207333 16.3333333,2.10502267 16.3333333,2.33333333 C16.3333333,2.561644 16.356287,2.78459333 16.400012,3 Z M7.66666667,4.66666667 C6.37800233,4.66666667 5.33333333,3.62199767 5.33333333,2.33333333 C5.33333333,1.044669 6.37800233,0 7.66666667,0 C8.955331,0 10,1.044669 10,2.33333333 C10,3.62199767 8.955331,4.66666667 7.66666667,4.66666667 Z M7.66666667,18 C6.37800233,18 5.33333333,16.955331 5.33333333,15.6666667 C5.33333333,14.3780023 6.37800233,13.3333333 7.66666667,13.3333333 C8.955331,13.3333333 10,14.3780023 10,15.6666667 C10,16.955331 8.955331,18 7.66666667,18 Z" id="Shape"></path>
  </g>
</svg>