<?xml version="1.0" encoding="UTF-8"?>
<svg width="24px" height="21px" viewBox="0 0 24 21" version="1.1" xmlns="http://www.w3.org/2000/svg" xmlns:xlink="http://www.w3.org/1999/xlink">  
  <title>Jobs</title>
  <g fill-rule="nonzero">      
    <path d="M15.5587284,15.5587284 L16.6417026,14.4757543 C16.75,14.3674569 16.7860991,14.1869612 16.7139009,14.0425647 L16.2446121,13.1761853 C16.497306,12.7790948 16.6778017,12.309806 16.7860991,11.8405172 L17.7246767,11.5517241 C17.8690733,11.515625 17.9773707,11.3712284 17.9773707,11.1907328 L17.9773707,9.67456897 C17.9773707,9.49407328 17.8690733,9.34967672 17.6885776,9.31357759 C17.6163793,9.27747845 17.0748922,9.1330819 16.75,9.06088362 C16.6056034,8.59159483 16.4251078,8.15840517 16.2085129,7.72521552 L16.6778017,6.85883621 C16.75,6.71443966 16.75,6.53394397 16.6056034,6.42564655 L15.5226293,5.34267241 C15.4143319,5.234375 15.2338362,5.19827586 15.0894397,5.27047414 L14.2591595,5.77586207 C13.8259698,5.5231681 13.3927802,5.34267241 12.9595905,5.234375 L12.6707974,4.25969828 C12.6346983,4.11530172 12.4903017,4.00700431 12.309806,4.00700431 L10.7575431,4.00700431 C10.5770474,4.00700431 10.46875,4.11530172 10.3965517,4.25969828 L10.1077586,5.234375 C9.63846983,5.34267241 9.20528017,5.5231681 8.77209052,5.77586207 L7.90571121,5.30657328 C7.76131466,5.234375 7.58081897,5.234375 7.47252155,5.37877155 L6.38954741,6.46174569 C6.28125,6.5700431 6.24515086,6.75053879 6.31734914,6.89493534 L6.82273707,7.76131466 C6.5700431,8.19450431 6.38954741,8.62769397 6.28125,9.09698276 L5.34267241,9.38577586 C5.19827586,9.421875 5.08997845,9.56627155 5.08997845,9.74676724 L5.08997845,11.2990302 C5.08997845,11.4795259 5.19827586,11.5878233 5.34267241,11.6600216 L6.28125,11.9488147 C6.42564655,12.4181034 6.60614224,12.8512931 6.82273707,13.2844828 L6.31734914,14.1508621 C6.24515086,14.2952586 6.28125,14.4757543 6.38954741,14.5840517 L7.47252155,15.6670259 C7.58081897,15.7753233 7.76131466,15.8114224 7.90571121,15.7392241 L8.77209052,15.2699353 C9.20528017,15.5226293 9.63846983,15.703125 10.1077586,15.8114224 L10.3965517,16.7860991 C10.4326509,16.9304957 10.5770474,17.0387931 10.7575431,17.0387931 L12.309806,17.0387931 C12.4542026,17.0387931 12.5985991,16.9304957 12.6707974,16.7860991 L12.9595905,15.8114224 C13.4288793,15.703125 13.862069,15.4865302 14.2591595,15.2699353 L15.1255388,15.7392241 C15.2699353,15.703125 15.450431,15.703125 15.5587284,15.5587284 Z M11.5517241,12.5625 C10.3965517,12.5625 9.45797414,11.6239224 9.45797414,10.46875 C9.45797414,9.31357759 10.3965517,8.375 11.5517241,8.375 C12.7068966,8.375 13.6454741,9.31357759 13.6454741,10.46875 C13.6454741,11.6239224 12.7068966,12.5625 11.5517241,12.5625 Z" id="Shape"></path>
    <path d="M14.6201509,1.98545259 C14.5840517,1.87715517 14.5840517,1.73275862 14.5840517,1.62446121 C14.5840517,1.51616379 14.5840517,1.37176724 14.6201509,1.26346983 L8.48329741,1.26346983 C8.51939655,1.37176724 8.51939655,1.51616379 8.51939655,1.62446121 C8.51939655,1.73275862 8.51939655,1.87715517 8.48329741,1.98545259 L14.6201509,1.98545259 Z" id="Path"></path>
    <path d="M17.3636853,17.3636853 C17.5802802,17.4358836 17.796875,17.5802802 17.9773707,17.7246767 L21.0457974,12.4181034 C20.8292026,12.3459052 20.6126078,12.2015086 20.4321121,12.0571121 L17.3636853,17.3636853 Z" id="Path"></path>
    <path d="M5.73976293,17.3636853 L2.67133621,12.0571121 C2.49084052,12.2015086 2.27424569,12.3459052 2.05765086,12.4181034 L5.12607759,17.7246767 C5.30657328,17.5802802 5.5231681,17.4358836 5.73976293,17.3636853 Z" id="Path"></path>
    <path d="M17.3636853,3.57381466 L20.4321121,8.88038793 C20.6126078,8.73599138 20.8292026,8.59159483 21.0457974,8.51939655 L17.9773707,3.21282328 C17.796875,3.35721983 17.5802802,3.50161638 17.3636853,3.57381466 Z" id="Path"></path>
    <path d="M5.73976293,3.57381466 C5.5231681,3.50161638 5.30657328,3.35721983 5.12607759,3.21282328 L2.05765086,8.51939655 C2.27424569,8.59159483 2.49084052,8.73599138 2.67133621,8.88038793 L5.73976293,3.57381466 Z" id="Path"></path>
    <path d="M8.48329741,18.9520474 C8.51939655,19.0603448 8.51939655,19.2047414 8.51939655,19.3130388 C8.51939655,19.4213362 8.51939655,19.5657328 8.48329741,19.6740302 L14.6201509,19.6740302 C14.5840517,19.5657328 14.5840517,19.4213362 14.5840517,19.3130388 C14.5840517,19.2047414 14.5840517,19.0603448 14.6201509,18.9520474 L8.48329741,18.9520474 Z" id="Path"></path>
    <path d="M21.7677802,9.1330819 C21.0096983,9.1330819 20.4321121,9.74676724 20.4321121,10.46875 C20.4321121,11.1907328 21.0457974,11.8044181 21.7677802,11.8044181 C22.4897629,11.8044181 23.1034483,11.1907328 23.1034483,10.46875 C23.1034483,9.7106681 22.4897629,9.1330819 21.7677802,9.1330819 Z" id="Path"></path>
    <path d="M16.6417026,17.9773707 C15.8836207,17.9773707 15.3060345,18.591056 15.3060345,19.3130388 C15.3060345,20.0350216 15.9197198,20.6487069 16.6417026,20.6487069 C17.3636853,20.6487069 17.9773707,20.0350216 17.9773707,19.3130388 C18.0134698,18.5549569 17.3997845,17.9773707 16.6417026,17.9773707 Z" id="Path"></path>
    <path d="M16.6417026,2.96012931 C17.3636853,2.96012931 17.9773707,2.34644397 17.9773707,1.62446121 C17.9773707,0.902478448 17.3636853,0.288793103 16.6417026,0.288793103 C15.8836207,0.288793103 15.3060345,0.902478448 15.3060345,1.62446121 C15.3060345,2.34644397 15.9197198,2.96012931 16.6417026,2.96012931 Z" id="Path"></path>
    <path d="M6.46174569,2.96012931 C7.18372845,2.96012931 7.79741379,2.34644397 7.79741379,1.62446121 C7.79741379,0.902478448 7.18372845,0.288793103 6.46174569,0.288793103 C5.70366379,0.288793103 5.12607759,0.902478448 5.12607759,1.62446121 C5.12607759,2.34644397 5.70366379,2.96012931 6.46174569,2.96012931 Z" id="Path"></path>
    <path d="M6.46174569,17.9773707 C5.70366379,17.9773707 5.12607759,18.591056 5.12607759,19.3130388 C5.12607759,20.0350216 5.73976293,20.6487069 6.46174569,20.6487069 C7.18372845,20.6487069 7.79741379,20.0350216 7.79741379,19.3130388 C7.79741379,18.5549569 7.18372845,17.9773707 6.46174569,17.9773707 Z" id="Path"></path>
    <path d="M2.70743534,10.46875 C2.70743534,9.7106681 2.09375,9.1330819 1.37176724,9.1330819 C0.649784483,9.1330819 0,9.7106681 0,10.46875 C0,11.1907328 0.613685345,11.8044181 1.3356681,11.8044181 C2.05765086,11.8044181 2.70743534,11.1907328 2.70743534,10.46875 Z" id="Path"></path>
  </g>
</svg>